<svg class="rich-terminal" viewBox="0 0 994 635.5999999999999" xmlns="http://www.w3.org/2000/svg">
    <!-- Generated with Rich https://www.textualize.io -->
    <style>

    @font-face {
        font-family: "Fira Code";
        src: local("FiraCode-Regular"),
                url("https://cdnjs.cloudflare.com/ajax/libs/firacode/6.2.0/woff2/FiraCode-Regular.woff2") format("woff2"),
                url("https://cdnjs.cloudflare.com/ajax/libs/firacode/6.2.0/woff/FiraCode-Regular.woff") format("woff");
        font-style: normal;
        font-weight: 400;
    }
    @font-face {
        font-family: "Fira Code";
        src: local("FiraCode-Bold"),
                url("https://cdnjs.cloudflare.com/ajax/libs/firacode/6.2.0/woff2/FiraCode-Bold.woff2") format("woff2"),
                url("https://cdnjs.cloudflare.com/ajax/libs/firacode/6.2.0/woff/FiraCode-Bold.woff") format("woff");
        font-style: bold;
        font-weight: 700;
    }

    .terminal-11625678-matrix {
        font-family: Fira Code, monospace;
        font-size: 20px;
        line-height: 24.4px;
        font-variant-east-asian: full-width;
    }

    .terminal-11625678-title {
        font-size: 18px;
        font-weight: bold;
        font-family: arial;
    }

    .terminal-11625678-r1 { fill: #c5c8c6 }
.terminal-11625678-r2 { fill: #e0e0e0 }
.terminal-11625678-r3 { fill: #a0a3a6 }
.terminal-11625678-r4 { fill: #c5c6c7 }
.terminal-11625678-r5 { fill: #1e293b }
.terminal-11625678-r6 { fill: #58d1eb;font-weight: bold }
.terminal-11625678-r7 { fill: #0b111c;font-weight: bold }
.terminal-11625678-r8 { fill: #98e024;font-weight: bold }
.terminal-11625678-r9 { fill: #f8fafc }
.terminal-11625678-r10 { fill: #c4c5b5 }
.terminal-11625678-r11 { fill: #a7aaaf }
.terminal-11625678-r12 { fill: #ffa62b;font-weight: bold }
.terminal-11625678-r13 { fill: #495259 }
    </style>

    <defs>
    <clipPath id="terminal-11625678-clip-terminal">
      <rect x="0" y="0" width="975.0" height="584.5999999999999" />
    </clipPath>
    <clipPath id="terminal-11625678-line-0">
    <rect x="0" y="1.5" width="976" height="24.65"/>
            </clipPath>
<clipPath id="terminal-11625678-line-1">
    <rect x="0" y="25.9" width="976" height="24.65"/>
            </clipPath>
<clipPath id="terminal-11625678-line-2">
    <rect x="0" y="50.3" width="976" height="24.65"/>
            </clipPath>
<clipPath id="terminal-11625678-line-3">
    <rect x="0" y="74.7" width="976" height="24.65"/>
            </clipPath>
<clipPath id="terminal-11625678-line-4">
    <rect x="0" y="99.1" width="976" height="24.65"/>
            </clipPath>
<clipPath id="terminal-11625678-line-5">
    <rect x="0" y="123.5" width="976" height="24.65"/>
            </clipPath>
<clipPath id="terminal-11625678-line-6">
    <rect x="0" y="147.9" width="976" height="24.65"/>
            </clipPath>
<clipPath id="terminal-11625678-line-7">
    <rect x="0" y="172.3" width="976" height="24.65"/>
            </clipPath>
<clipPath id="terminal-11625678-line-8">
    <rect x="0" y="196.7" width="976" height="24.65"/>
            </clipPath>
<clipPath id="terminal-11625678-line-9">
    <rect x="0" y="221.1" width="976" height="24.65"/>
            </clipPath>
<clipPath id="terminal-11625678-line-10">
    <rect x="0" y="245.5" width="976" height="24.65"/>
            </clipPath>
<clipPath id="terminal-11625678-line-11">
    <rect x="0" y="269.9" width="976" height="24.65"/>
            </clipPath>
<clipPath id="terminal-11625678-line-12">
    <rect x="0" y="294.3" width="976" height="24.65"/>
            </clipPath>
<clipPath id="terminal-11625678-line-13">
    <rect x="0" y="318.7" width="976" height="24.65"/>
            </clipPath>
<clipPath id="terminal-11625678-line-14">
    <rect x="0" y="343.1" width="976" height="24.65"/>
            </clipPath>
<clipPath id="terminal-11625678-line-15">
    <rect x="0" y="367.5" width="976" height="24.65"/>
            </clipPath>
<clipPath id="terminal-11625678-line-16">
    <rect x="0" y="391.9" width="976" height="24.65"/>
            </clipPath>
<clipPath id="terminal-11625678-line-17">
    <rect x="0" y="416.3" width="976" height="24.65"/>
            </clipPath>
<clipPath id="terminal-11625678-line-18">
    <rect x="0" y="440.7" width="976" height="24.65"/>
            </clipPath>
<clipPath id="terminal-11625678-line-19">
    <rect x="0" y="465.1" width="976" height="24.65"/>
            </clipPath>
<clipPath id="terminal-11625678-line-20">
    <rect x="0" y="489.5" width="976" height="24.65"/>
            </clipPath>
<clipPath id="terminal-11625678-line-21">
    <rect x="0" y="513.9" width="976" height="24.65"/>
            </clipPath>
<clipPath id="terminal-11625678-line-22">
    <rect x="0" y="538.3" width="976" height="24.65"/>
            </clipPath>
    </defs>

    <rect fill="#292929" stroke="rgba(255,255,255,0.35)" stroke-width="1" x="1" y="1" width="992" height="633.6" rx="8"/><text class="terminal-11625678-title" fill="#c5c8c6" text-anchor="middle" x="496" y="27">Commerce&#160;App</text>
            <g transform="translate(26,22)">
            <circle cx="0" cy="0" r="7" fill="#ff5f57"/>
            <circle cx="22" cy="0" r="7" fill="#febc2e"/>
            <circle cx="44" cy="0" r="7" fill="#28c840"/>
            </g>
        
    <g transform="translate(9, 41)" clip-path="url(#terminal-11625678-clip-terminal)">
    <rect fill="#242f38" x="0" y="1.5" width="12.2" height="24.65" shape-rendering="crispEdges"/><rect fill="#242f38" x="12.2" y="1.5" width="12.2" height="24.65" shape-rendering="crispEdges"/><rect fill="#242f38" x="24.4" y="1.5" width="61" height="24.65" shape-rendering="crispEdges"/><rect fill="#242f38" x="85.4" y="1.5" width="12.2" height="24.65" shape-rendering="crispEdges"/><rect fill="#242f38" x="97.6" y="1.5" width="597.8" height="24.65" shape-rendering="crispEdges"/><rect fill="#242f38" x="695.4" y="1.5" width="36.6" height="24.65" shape-rendering="crispEdges"/><rect fill="#242f38" x="732" y="1.5" width="122" height="24.65" shape-rendering="crispEdges"/><rect fill="#2c363f" x="854" y="1.5" width="12.2" height="24.65" shape-rendering="crispEdges"/><rect fill="#2c363f" x="866.2" y="1.5" width="97.6" height="24.65" shape-rendering="crispEdges"/><rect fill="#2c363f" x="963.8" y="1.5" width="12.2" height="24.65" shape-rendering="crispEdges"/><rect fill="#070b12" x="0" y="25.9" width="976" height="24.65" shape-rendering="crispEdges"/><rect fill="#070b12" x="0" y="50.3" width="12.2" height="24.65" shape-rendering="crispEdges"/><rect fill="#0b111c" x="12.2" y="50.3" width="12.2" height="24.65" shape-rendering="crispEdges"/><rect fill="#0b111c" x="24.4" y="50.3" width="927.2" height="24.65" shape-rendering="crispEdges"/><rect fill="#0b111c" x="951.6" y="50.3" width="12.2" height="24.65" shape-rendering="crispEdges"/><rect fill="#070b12" x="963.8" y="50.3" width="12.2" height="24.65" shape-rendering="crispEdges"/><rect fill="#070b12" x="0" y="74.7" width="12.2" height="24.65" shape-rendering="crispEdges"/><rect fill="#0b111c" x="12.2" y="74.7" width="12.2" height="24.65" shape-rendering="crispEdges"/><rect fill="#0b111c" x="24.4" y="74.7" width="927.2" height="24.65" shape-rendering="crispEdges"/><rect fill="#0b111c" x="951.6" y="74.7" width="12.2" height="24.65" shape-rendering="crispEdges"/><rect fill="#070b12" x="963.8" y="74.7" width="12.2" height="24.65" shape-rendering="crispEdges"/><rect fill="#070b12" x="0" y="99.1" width="12.2" height="24.65" shape-rendering="crispEdges"/><rect fill="#0b111c" x="12.2" y="99.1" width="12.2" height="24.65" shape-rendering="crispEdges"/><rect fill="#0b111c" x="24.4" y="99.1" width="24.4" height="24.65" shape-rendering="crispEdges"/><rect fill="#0b111c" x="48.8" y="99.1" width="256.2" height="24.65" shape-rendering="crispEdges"/><rect fill="#0b111c" x="305" y="99.1" width="622.2" height="24.65" shape-rendering="crispEdges"/><rect fill="#0b111c" x="927.2" y="99.1" width="24.4" height="24.65" shape-rendering="crispEdges"/><rect fill="#0b111c" x="951.6" y="99.1" width="12.2" height="24.65" shape-rendering="crispEdges"/><rect fill="#070b12" x="963.8" y="99.1" width="12.2" height="24.65" shape-rendering="crispEdges"/><rect fill="#070b12" x="0" y="123.5" width="12.2" height="24.65" shape-rendering="crispEdges"/><rect fill="#0b111c" x="12.2" y="123.5" width="12.2" height="24.65" shape-rendering="crispEdges"/><rect fill="#0b111c" x="24.4" y="123.5" width="24.4" height="24.65" shape-rendering="crispEdges"/><rect fill="#98e024" x="48.8" y="123.5" width="48.8" height="24.65" shape-rendering="crispEdges"/><rect fill="#0b111c" x="97.6" y="123.5" width="97.6" height="24.65" shape-rendering="crispEdges"/><rect fill="#0b111c" x="195.2" y="123.5" width="732" height="24.65" shape-rendering="crispEdges"/><rect fill="#0b111c" x="927.2" y="123.5" width="24.4" height="24.65" shape-rendering="crispEdges"/><rect fill="#0b111c" x="951.6" y="123.5" width="12.2" height="24.65" shape-rendering="crispEdges"/><rect fill="#070b12" x="963.8" y="123.5" width="12.2" height="24.65" shape-rendering="crispEdges"/><rect fill="#070b12" x="0" y="147.9" width="12.2" height="24.65" shape-rendering="crispEdges"/><rect fill="#0b111c" x="12.2" y="147.9" width="12.2" height="24.65" shape-rendering="crispEdges"/><rect fill="#0b111c" x="24.4" y="147.9" width="24.4" height="24.65" shape-rendering="crispEdges"/><rect fill="#0b111c" x="48.8" y="147.9" width="0" height="24.65" shape-rendering="crispEdges"/><rect fill="#0b111c" x="48.8" y="147.9" width="878.4" height="24.65" shape-rendering="crispEdges"/><rect fill="#0b111c" x="927.2" y="147.9" width="24.4" height="24.65" shape-rendering="crispEdges"/><rect fill="#0b111c" x="951.6" y="147.9" width="12.2" height="24.65" shape-rendering="crispEdges"/><rect fill="#070b12" x="963.8" y="147.9" width="12.2" height="24.65" shape-rendering="crispEdges"/><rect fill="#070b12" x="0" y="172.3" width="12.2" height="24.65" shape-rendering="crispEdges"/><rect fill="#0b111c" x="12.2" y="172.3" width="12.2" height="24.65" shape-rendering="crispEdges"/><rect fill="#0b111c" x="24.4" y="172.3" width="24.4" height="24.65" shape-rendering="crispEdges"/><rect fill="#0b111c" x="48.8" y="172.3" width="353.8" height="24.65" shape-rendering="crispEdges"/><rect fill="#0b111c" x="402.6" y="172.3" width="524.6" height="24.65" shape-rendering="crispEdges"/><rect fill="#0b111c" x="927.2" y="172.3" width="24.4" height="24.65" shape-rendering="crispEdges"/><rect fill="#0b111c" x="951.6" y="172.3" width="12.2" height="24.65" shape-rendering="crispEdges"/><rect fill="#070b12" x="963.8" y="172.3" width="12.2" height="24.65" shape-rendering="crispEdges"/><rect fill="#070b12" x="0" y="196.7" width="12.2" height="24.65" shape-rendering="crispEdges"/><rect fill="#0b111c" x="12.2" y="196.7" width="12.2" height="24.65" shape-rendering="crispEdges"/><rect fill="#0b111c" x="24.4" y="196.7" width="24.4" height="24.65" shape-rendering="crispEdges"/><rect fill="#0b111c" x="48.8" y="196.7" width="378.2" height="24.65" shape-rendering="crispEdges"/><rect fill="#0b111c" x="427" y="196.7" width="500.2" height="24.65" shape-rendering="crispEdges"/><rect fill="#0b111c" x="927.2" y="196.7" width="24.4" height="24.65" shape-rendering="crispEdges"/><rect fill="#0b111c" x="951.6" y="196.7" width="12.2" height="24.65" shape-rendering="crispEdges"/><rect fill="#070b12" x="963.8" y="196.7" width="12.2" height="24.65" shape-rendering="crispEdges"/><rect fill="#070b12" x="0" y="221.1" width="12.2" height="24.65" shape-rendering="crispEdges"/><rect fill="#0b111c" x="12.2" y="221.1" width="12.2" height="24.65" shape-rendering="crispEdges"/><rect fill="#0b111c" x="24.4" y="221.1" width="24.4" height="24.65" shape-rendering="crispEdges"/><rect fill="#0b111c" x="48.8" y="221.1" width="353.8" height="24.65" shape-rendering="crispEdges"/><rect fill="#0b111c" x="402.6" y="221.1" width="524.6" height="24.65" shape-rendering="crispEdges"/><rect fill="#0b111c" x="927.2" y="221.1" width="24.4" height="24.65" shape-rendering="crispEdges"/><rect fill="#0b111c" x="951.6" y="221.1" width="12.2" height="24.65" shape-rendering="crispEdges"/><rect fill="#070b12" x="963.8" y="221.1" width="12.2" height="24.65" shape-rendering="crispEdges"/><rect fill="#070b12" x="0" y="245.5" width="12.2" height="24.65" shape-rendering="crispEdges"/><rect fill="#0b111c" x="12.2" y="245.5" width="12.2" height="24.65" shape-rendering="crispEdges"/><rect fill="#0b111c" x="24.4" y="245.5" width="24.4" height="24.65" shape-rendering="crispEdges"/><rect fill="#0b111c" x="48.8" y="245.5" width="878.4" height="24.65" shape-rendering="crispEdges"/><rect fill="#0b111c" x="927.2" y="245.5" width="24.4" height="24.65" shape-rendering="crispEdges"/><rect fill="#0b111c" x="951.6" y="245.5" width="12.2" height="24.65" shape-rendering="crispEdges"/><rect fill="#070b12" x="963.8" y="245.5" width="12.2" height="24.65" shape-rendering="crispEdges"/><rect fill="#070b12" x="0" y="269.9" width="12.2" height="24.65" shape-rendering="crispEdges"/><rect fill="#0b111c" x="12.2" y="269.9" width="12.2" height="24.65" shape-rendering="crispEdges"/><rect fill="#0b111c" x="24.4" y="269.9" width="24.4" height="24.65" shape-rendering="crispEdges"/><rect fill="#0b111c" x="48.8" y="269.9" width="878.4" height="24.65" shape-rendering="crispEdges"/><rect fill="#0b111c" x="927.2" y="269.9" width="24.4" height="24.65" shape-rendering="crispEdges"/><rect fill="#0b111c" x="951.6" y="269.9" width="12.2" height="24.65" shape-rendering="crispEdges"/><rect fill="#070b12" x="963.8" y="269.9" width="12.2" height="24.65" shape-rendering="crispEdges"/><rect fill="#070b12" x="0" y="294.3" width="12.2" height="24.65" shape-rendering="crispEdges"/><rect fill="#0b111c" x="12.2" y="294.3" width="12.2" height="24.65" shape-rendering="crispEdges"/><rect fill="#0b111c" x="24.4" y="294.3" width="927.2" height="24.65" shape-rendering="crispEdges"/><rect fill="#0b111c" x="951.6" y="294.3" width="12.2" height="24.65" shape-rendering="crispEdges"/><rect fill="#070b12" x="963.8" y="294.3" width="12.2" height="24.65" shape-rendering="crispEdges"/><rect fill="#070b12" x="0" y="318.7" width="12.2" height="24.65" shape-rendering="crispEdges"/><rect fill="#0b111c" x="12.2" y="318.7" width="12.2" height="24.65" shape-rendering="crispEdges"/><rect fill="#0b111c" x="24.4" y="318.7" width="927.2" height="24.65" shape-rendering="crispEdges"/><rect fill="#0b111c" x="951.6" y="318.7" width="12.2" height="24.65" shape-rendering="crispEdges"/><rect fill="#070b12" x="963.8" y="318.7" width="12.2" height="24.65" shape-rendering="crispEdges"/><rect fill="#070b12" x="0" y="343.1" width="976" height="24.65" shape-rendering="crispEdges"/><rect fill="#070b12" x="0" y="367.5" width="12.2" height="24.65" shape-rendering="crispEdges"/><rect fill="#0b111c" x="12.2" y="367.5" width="12.2" height="24.65" shape-rendering="crispEdges"/><rect fill="#0b111c" x="24.4" y="367.5" width="927.2" height="24.65" shape-rendering="crispEdges"/><rect fill="#0b111c" x="951.6" y="367.5" width="12.2" height="24.65" shape-rendering="crispEdges"/><rect fill="#070b12" x="963.8" y="367.5" width="12.2" height="24.65" shape-rendering="crispEdges"/><rect fill="#070b12" x="0" y="391.9" width="12.2" height="24.65" shape-rendering="crispEdges"/><rect fill="#0b111c" x="12.2" y="391.9" width="12.2" height="24.65" shape-rendering="crispEdges"/><rect fill="#0b111c" x="24.4" y="391.9" width="927.2" height="24.65" shape-rendering="crispEdges"/><rect fill="#0b111c" x="951.6" y="391.9" width="12.2" height="24.65" shape-rendering="crispEdges"/><rect fill="#070b12" x="963.8" y="391.9" width="12.2" height="24.65" shape-rendering="crispEdges"/><rect fill="#070b12" x="0" y="416.3" width="12.2" height="24.65" shape-rendering="crispEdges"/><rect fill="#0b111c" x="12.2" y="416.3" width="12.2" height="24.65" shape-rendering="crispEdges"/><rect fill="#0b111c" x="24.4" y="416.3" width="927.2" height="24.65" shape-rendering="crispEdges"/><rect fill="#0b111c" x="951.6" y="416.3" width="12.2" height="24.65" shape-rendering="crispEdges"/><rect fill="#070b12" x="963.8" y="416.3" width="12.2" height="24.65" shape-rendering="crispEdges"/><rect fill="#070b12" x="0" y="440.7" width="12.2" height="24.65" shape-rendering="crispEdges"/><rect fill="#0b111c" x="12.2" y="440.7" width="12.2" height="24.65" shape-rendering="crispEdges"/><rect fill="#0b111c" x="24.4" y="440.7" width="927.2" height="24.65" shape-rendering="crispEdges"/><rect fill="#0b111c" x="951.6" y="440.7" width="12.2" height="24.65" shape-rendering="crispEdges"/><rect fill="#070b12" x="963.8" y="440.7" width="12.2" height="24.65" shape-rendering="crispEdges"/><rect fill="#070b12" x="0" y="465.1" width="976" height="24.65" shape-rendering="crispEdges"/><rect fill="#0b111c" x="0" y="489.5" width="976" height="24.65" shape-rendering="crispEdges"/><rect fill="#0b111c" x="0" y="513.9" width="768.6" height="24.65" shape-rendering="crispEdges"/><rect fill="#0b111c" x="768.6" y="513.9" width="61" height="24.65" shape-rendering="crispEdges"/><rect fill="#0b111c" x="829.6" y="513.9" width="146.4" height="24.65" shape-rendering="crispEdges"/><rect fill="#0b111c" x="0" y="538.3" width="976" height="24.65" shape-rendering="crispEdges"/><rect fill="#242f38" x="0" y="562.7" width="36.6" height="24.65" shape-rendering="crispEdges"/><rect fill="#242f38" x="36.6" y="562.7" width="61" height="24.65" shape-rendering="crispEdges"/><rect fill="#242f38" x="97.6" y="562.7" width="36.6" height="24.65" shape-rendering="crispEdges"/><rect fill="#242f38" x="134.2" y="562.7" width="219.6" height="24.65" shape-rendering="crispEdges"/><rect fill="#242f38" x="353.8" y="562.7" width="36.6" height="24.65" shape-rendering="crispEdges"/><rect fill="#242f38" x="390.4" y="562.7" width="183" height="24.65" shape-rendering="crispEdges"/><rect fill="#242f38" x="573.4" y="562.7" width="36.6" height="24.65" shape-rendering="crispEdges"/><rect fill="#242f38" x="610" y="562.7" width="183" height="24.65" shape-rendering="crispEdges"/><rect fill="#242f38" x="793" y="562.7" width="36.6" height="24.65" shape-rendering="crispEdges"/><rect fill="#242f38" x="829.6" y="562.7" width="12.2" height="24.65" shape-rendering="crispEdges"/><rect fill="#242f38" x="841.8" y="562.7" width="24.4" height="24.65" shape-rendering="crispEdges"/><rect fill="#242f38" x="866.2" y="562.7" width="97.6" height="24.65" shape-rendering="crispEdges"/><rect fill="#242f38" x="963.8" y="562.7" width="12.2" height="24.65" shape-rendering="crispEdges"/>
    <g class="terminal-11625678-matrix">
    <text class="terminal-11625678-r2" x="12.2" y="20" textLength="12.2" clip-path="url(#terminal-11625678-line-0)">⭘</text><text class="terminal-11625678-r2" x="97.6" y="20" textLength="597.8" clip-path="url(#terminal-11625678-line-0)">🛍️&#160;LAUBURU&#160;STORE&#160;&amp;&#160;MEMBERSHIP&#160;—&#160;HEADLESS&#160;COMMERCE</text><text class="terminal-11625678-r3" x="695.4" y="20" textLength="36.6" clip-path="url(#terminal-11625678-line-0)">&#160;—&#160;</text><text class="terminal-11625678-r3" x="732" y="20" textLength="122" clip-path="url(#terminal-11625678-line-0)">Athlete&#160;S…</text><text class="terminal-11625678-r4" x="866.2" y="20" textLength="97.6" clip-path="url(#terminal-11625678-line-0)">15:22:36</text><text class="terminal-11625678-r1" x="976" y="20" textLength="12.2" clip-path="url(#terminal-11625678-line-0)">
</text><text class="terminal-11625678-r1" x="976" y="44.4" textLength="12.2" clip-path="url(#terminal-11625678-line-1)">
</text><text class="terminal-11625678-r5" x="12.2" y="68.8" textLength="12.2" clip-path="url(#terminal-11625678-line-2)">┌</text><text class="terminal-11625678-r5" x="24.4" y="68.8" textLength="927.2" clip-path="url(#terminal-11625678-line-2)">────────────────────────────────────────────────────────────────────────────</text><text class="terminal-11625678-r5" x="951.6" y="68.8" textLength="12.2" clip-path="url(#terminal-11625678-line-2)">┐</text><text class="terminal-11625678-r1" x="976" y="68.8" textLength="12.2" clip-path="url(#terminal-11625678-line-2)">
</text><text class="terminal-11625678-r5" x="12.2" y="93.2" textLength="12.2" clip-path="url(#terminal-11625678-line-3)">│</text><text class="terminal-11625678-r5" x="951.6" y="93.2" textLength="12.2" clip-path="url(#terminal-11625678-line-3)">│</text><text class="terminal-11625678-r1" x="976" y="93.2" textLength="12.2" clip-path="url(#terminal-11625678-line-3)">
</text><text class="terminal-11625678-r5" x="12.2" y="117.6" textLength="12.2" clip-path="url(#terminal-11625678-line-4)">│</text><text class="terminal-11625678-r6" x="48.8" y="117.6" textLength="244" clip-path="url(#terminal-11625678-line-4)">🏃&#160;ATHLETE&#160;MEMBERSHIP</text><text class="terminal-11625678-r5" x="951.6" y="117.6" textLength="12.2" clip-path="url(#terminal-11625678-line-4)">│</text><text class="terminal-11625678-r1" x="976" y="117.6" textLength="12.2" clip-path="url(#terminal-11625678-line-4)">
</text><text class="terminal-11625678-r5" x="12.2" y="142" textLength="12.2" clip-path="url(#terminal-11625678-line-5)">│</text><text class="terminal-11625678-r7" x="48.8" y="142" textLength="48.8" clip-path="url(#terminal-11625678-line-5)">&#160;$9&#160;</text><text class="terminal-11625678-r8" x="97.6" y="142" textLength="97.6" clip-path="url(#terminal-11625678-line-5)">&#160;/&#160;month</text><text class="terminal-11625678-r5" x="951.6" y="142" textLength="12.2" clip-path="url(#terminal-11625678-line-5)">│</text><text class="terminal-11625678-r1" x="976" y="142" textLength="12.2" clip-path="url(#terminal-11625678-line-5)">
</text><text class="terminal-11625678-r5" x="12.2" y="166.4" textLength="12.2" clip-path="url(#terminal-11625678-line-6)">│</text><text class="terminal-11625678-r5" x="951.6" y="166.4" textLength="12.2" clip-path="url(#terminal-11625678-line-6)">│</text><text class="terminal-11625678-r1" x="976" y="166.4" textLength="12.2" clip-path="url(#terminal-11625678-line-6)">
</text><text class="terminal-11625678-r5" x="12.2" y="190.8" textLength="12.2" clip-path="url(#terminal-11625678-line-7)">│</text><text class="terminal-11625678-r10" x="48.8" y="190.8" textLength="353.8" clip-path="url(#terminal-11625678-line-7)">•&#160;512Hz&#160;ECG&#160;&amp;&#160;Zone&#160;2&#160;Coaching</text><text class="terminal-11625678-r5" x="951.6" y="190.8" textLength="12.2" clip-path="url(#terminal-11625678-line-7)">│</text><text class="terminal-11625678-r1" x="976" y="190.8" textLength="12.2" clip-path="url(#terminal-11625678-line-7)">
</text><text class="terminal-11625678-r5" x="12.2" y="215.2" textLength="12.2" clip-path="url(#terminal-11625678-line-8)">│</text><text class="terminal-11625678-r10" x="48.8" y="215.2" textLength="378.2" clip-path="url(#terminal-11625678-line-8)">•&#160;PTT&#160;Continuous&#160;Blood&#160;Pressure</text><text class="terminal-11625678-r5" x="951.6" y="215.2" textLength="12.2" clip-path="url(#terminal-11625678-line-8)">│</text><text class="terminal-11625678-r1" x="976" y="215.2" textLength="12.2" clip-path="url(#terminal-11625678-line-8)">
</text><text class="terminal-11625678-r5" x="12.2" y="239.6" textLength="12.2" clip-path="url(#terminal-11625678-line-9)">│</text><text class="terminal-11625678-r11" x="48.8" y="239.6" textLength="353.8" clip-path="url(#terminal-11625678-line-9)">•&#160;Overnight&#160;Sleep&#160;Score&#160;&amp;&#160;HRV</text><text class="terminal-11625678-r5" x="951.6" y="239.6" textLength="12.2" clip-path="url(#terminal-11625678-line-9)">│</text><text class="terminal-11625678-r1" x="976" y="239.6" textLength="12.2" clip-path="url(#terminal-11625678-line-9)">
</text><text class="terminal-11625678-r5" x="12.2" y="264" textLength="12.2" clip-path="url(#terminal-11625678-line-10)">│</text><text class="terminal-11625678-r5" x="951.6" y="264" textLength="12.2" clip-path="url(#terminal-11625678-line-10)">│</text><text class="terminal-11625678-r1" x="976" y="264" textLength="12.2" clip-path="url(#terminal-11625678-line-10)">
</text><text class="terminal-11625678-r5" x="12.2" y="288.4" textLength="12.2" clip-path="url(#terminal-11625678-line-11)">│</text><text class="terminal-11625678-r5" x="951.6" y="288.4" textLength="12.2" clip-path="url(#terminal-11625678-line-11)">│</text><text class="terminal-11625678-r1" x="976" y="288.4" textLength="12.2" clip-path="url(#terminal-11625678-line-11)">
</text><text class="terminal-11625678-r5" x="12.2" y="312.8" textLength="12.2" clip-path="url(#terminal-11625678-line-12)">│</text><text class="terminal-11625678-r5" x="951.6" y="312.8" textLength="12.2" clip-path="url(#terminal-11625678-line-12)">│</text><text class="terminal-11625678-r1" x="976" y="312.8" textLength="12.2" clip-path="url(#terminal-11625678-line-12)">
</text><text class="terminal-11625678-r5" x="12.2" y="337.2" textLength="12.2" clip-path="url(#terminal-11625678-line-13)">└</text><text class="terminal-11625678-r5" x="24.4" y="337.2" textLength="927.2" clip-path="url(#terminal-11625678-line-13)">────────────────────────────────────────────────────────────────────────────</text><text class="terminal-11625678-r5" x="951.6" y="337.2" textLength="12.2" clip-path="url(#terminal-11625678-line-13)">┘</text><text class="terminal-11625678-r1" x="976" y="337.2" textLength="12.2" clip-path="url(#terminal-11625678-line-13)">
</text><text class="terminal-11625678-r1" x="976" y="361.6" textLength="12.2" clip-path="url(#terminal-11625678-line-14)">
</text><text class="terminal-11625678-r5" x="12.2" y="386" textLength="12.2" clip-path="url(#terminal-11625678-line-15)">┌</text><text class="terminal-11625678-r5" x="24.4" y="386" textLength="927.2" clip-path="url(#terminal-11625678-line-15)">────────────────────────────────────────────────────────────────────────────</text><text class="terminal-11625678-r5" x="951.6" y="386" textLength="12.2" clip-path="url(#terminal-11625678-line-15)">┐</text><text class="terminal-11625678-r1" x="976" y="386" textLength="12.2" clip-path="url(#terminal-11625678-line-15)">
</text><text class="terminal-11625678-r5" x="12.2" y="410.4" textLength="12.2" clip-path="url(#terminal-11625678-line-16)">│</text><text class="terminal-11625678-r5" x="951.6" y="410.4" textLength="12.2" clip-path="url(#terminal-11625678-line-16)">│</text><text class="terminal-11625678-r1" x="976" y="410.4" textLength="12.2" clip-path="url(#terminal-11625678-line-16)">
</text><text class="terminal-11625678-r5" x="12.2" y="434.8" textLength="12.2" clip-path="url(#terminal-11625678-line-17)">│</text><text class="terminal-11625678-r5" x="951.6" y="434.8" textLength="12.2" clip-path="url(#terminal-11625678-line-17)">│</text><text class="terminal-11625678-r1" x="976" y="434.8" textLength="12.2" clip-path="url(#terminal-11625678-line-17)">
</text><text class="terminal-11625678-r5" x="12.2" y="459.2" textLength="12.2" clip-path="url(#terminal-11625678-line-18)">└</text><text class="terminal-11625678-r5" x="24.4" y="459.2" textLength="927.2" clip-path="url(#terminal-11625678-line-18)">────────────────────────────────────────────────────────────────────────────</text><text class="terminal-11625678-r5" x="951.6" y="459.2" textLength="12.2" clip-path="url(#terminal-11625678-line-18)">┘</text><text class="terminal-11625678-r1" x="976" y="459.2" textLength="12.2" clip-path="url(#terminal-11625678-line-18)">
</text><text class="terminal-11625678-r1" x="976" y="483.6" textLength="12.2" clip-path="url(#terminal-11625678-line-19)">
</text><text class="terminal-11625678-r5" x="0" y="508" textLength="976" clip-path="url(#terminal-11625678-line-20)">────────────────────────────────────────────────────────────────────────────────</text><text class="terminal-11625678-r1" x="976" y="508" textLength="12.2" clip-path="url(#terminal-11625678-line-20)">
</text><text class="terminal-11625678-r9" x="0" y="532.4" textLength="756.4" clip-path="url(#terminal-11625678-line-21)">🔒&#160;Shopify&#160;Headless&#160;GraphQL&#160;Checkout&#160;•&#160;Cloudflare&#160;Edge&#160;•&#160;Press&#160;</text><text class="terminal-11625678-r9" x="768.6" y="532.4" textLength="61" clip-path="url(#terminal-11625678-line-21)">&#160;Quit</text><text class="terminal-11625678-r1" x="976" y="532.4" textLength="12.2" clip-path="url(#terminal-11625678-line-21)">
</text><text class="terminal-11625678-r1" x="976" y="556.8" textLength="12.2" clip-path="url(#terminal-11625678-line-22)">
</text><text class="terminal-11625678-r12" x="0" y="581.2" textLength="36.6" clip-path="url(#terminal-11625678-line-23)">&#160;q&#160;</text><text class="terminal-11625678-r2" x="36.6" y="581.2" textLength="61" clip-path="url(#terminal-11625678-line-23)">Quit&#160;</text><text class="terminal-11625678-r12" x="97.6" y="581.2" textLength="36.6" clip-path="url(#terminal-11625678-line-23)">&#160;1&#160;</text><text class="terminal-11625678-r2" x="134.2" y="581.2" textLength="219.6" clip-path="url(#terminal-11625678-line-23)">Athlete&#160;Tier&#160;($9)&#160;</text><text class="terminal-11625678-r12" x="353.8" y="581.2" textLength="36.6" clip-path="url(#terminal-11625678-line-23)">&#160;2&#160;</text><text class="terminal-11625678-r2" x="390.4" y="581.2" textLength="183" clip-path="url(#terminal-11625678-line-23)">Pro&#160;Tier&#160;($29)&#160;</text><text class="terminal-11625678-r12" x="573.4" y="581.2" textLength="36.6" clip-path="url(#terminal-11625678-line-23)">&#160;3&#160;</text><text class="terminal-11625678-r2" x="610" y="581.2" textLength="183" clip-path="url(#terminal-11625678-line-23)">Gym&#160;Tier&#160;($99)&#160;</text><text class="terminal-11625678-r13" x="829.6" y="581.2" textLength="12.2" clip-path="url(#terminal-11625678-line-23)">▏</text><text class="terminal-11625678-r12" x="841.8" y="581.2" textLength="24.4" clip-path="url(#terminal-11625678-line-23)">^p</text><text class="terminal-11625678-r2" x="866.2" y="581.2" textLength="97.6" clip-path="url(#terminal-11625678-line-23)">&#160;palette</text>
    </g>
    </g>
</svg>
